<?xml version="1.0" encoding="utf-8"?><svg viewBox="0 0 502.66 502.66" xmlns="http://www.w3.org/2000/svg" xmlns:xlink="http://www.w3.org/1999/xlink"><style>:root>svg{display:none}:root>svg:target{display:block}</style><svg viewBox="0 0 40 40" id="fb" xmlns="http://www.w3.org/2000/svg"><g clip-path="url(#aa)"><path d="M22.855 13.32h1.76v-3.18A21.942 21.942 0 0022.05 10c-2.538 0-4.277 1.656-4.277 4.7v2.8h-2.801v3.555h2.8V30h3.435v-8.944h2.688l.427-3.555h-3.116v-2.45c.001-1.027.268-1.73 1.649-1.73z"/></g><rect x=".5" y=".5" width="39" height="39" rx="19.5"/><defs><clipPath id="aa"><path transform="translate(10 10)" d="M0 0h19.286v20H0z"/></clipPath></defs></svg><svg viewBox="0 0 502.664 502.664" id="icon" xmlns="http://www.w3.org/2000/svg"><path d="M153.821 358.226L0 274.337v-46.463l153.821-83.414v54.574L46.636 250.523l107.185 53.431v54.272zm26.273 29.358L282.103 115.08h32.227L212.084 387.584h-31.99zm168.749-29.358v-54.272l107.164-52.999-107.164-52.59v-53.927l153.821 83.522v46.183l-153.821 84.083z"/></svg><svg viewBox="0 0 40 40" id="inst" xmlns="http://www.w3.org/2000/svg"><path d="M24.5 17a1.5 1.5 0 100-3 1.5 1.5 0 000 3zM20 16a4 4 0 100 8 4 4 0 000-8zm0 6a2 2 0 110-4 2 2 0 010 4z"/><path d="M25 12H15a3 3 0 00-3 3v10a3 3 0 003 3h10a3 3 0 003-3V15a3 3 0 00-3-3z"/><rect x=".5" y=".5" width="39" height="39" rx="19.5"/></svg><svg viewBox="0 0 2 10" id="tooltip-icon" xmlns="http://www.w3.org/2000/svg"><path d="M1.848 10l-.122-6.619H.274L.152 10h1.696zM1.004 0C.434 0 0 .384 0 .885c0 .5.433.885 1.004.885.555 0 .996-.385.996-.885S1.559 0 1.004 0z"/></svg><svg viewBox="0 0 40 40" id="yout" xmlns="http://www.w3.org/2000/svg"><path d="M20.443 26.982l-4.103-.076c-1.329-.027-2.66.026-3.963-.248-1.981-.41-2.122-2.418-2.269-4.103a29.117 29.117 0 01.258-7.128c.216-1.318 1.064-2.104 2.377-2.19 4.43-.31 8.888-.274 13.308-.129.467.013.937.086 1.397.169 2.272.403 2.328 2.679 2.475 4.595a26.363 26.363 0 01-.196 5.803c-.225 1.592-.656 2.927-2.475 3.056-2.278.168-4.504.304-6.79.26 0-.01-.012-.01-.019-.01zm-2.412-4.03c1.717-.998 3.401-1.979 5.108-2.97-1.72-.998-3.401-1.979-5.108-2.97v5.94z"/><rect x=".5" y=".5" width="39" height="39" rx="19.5"/></svg></svg>